<svg id="visual" viewBox="0 0 960 540" width="960" height="540" xmlns="http://www.w3.org/2000/svg" xmlns:xlink="http://www.w3.org/1999/xlink" version="1.1"><rect x="0" y="0" width="960" height="540" fill="#001220"></rect><path d="M0 307L22.8 307.3C45.7 307.7 91.3 308.3 137 305.5C182.7 302.7 228.3 296.3 274 300C319.7 303.7 365.3 317.3 411.2 318.3C457 319.3 503 307.7 548.8 297.3C594.7 287 640.3 278 686 280C731.7 282 777.3 295 823 303.3C868.7 311.7 914.3 315.3 937.2 317.2L960 319L960 541L937.2 541C914.3 541 868.7 541 823 541C777.3 541 731.7 541 686 541C640.3 541 594.7 541 548.8 541C503 541 457 541 411.2 541C365.3 541 319.7 541 274 541C228.3 541 182.7 541 137 541C91.3 541 45.7 541 22.8 541L0 541Z" fill="#fa7268"></path><path d="M0 319L22.8 329.7C45.7 340.3 91.3 361.7 137 361.7C182.7 361.7 228.3 340.3 274 334.7C319.7 329 365.3 339 411.2 347.8C457 356.7 503 364.3 548.8 368C594.7 371.7 640.3 371.3 686 373.7C731.7 376 777.3 381 823 380.3C868.7 379.7 914.3 373.3 937.2 370.2L960 367L960 541L937.2 541C914.3 541 868.7 541 823 541C777.3 541 731.7 541 686 541C640.3 541 594.7 541 548.8 541C503 541 457 541 411.2 541C365.3 541 319.7 541 274 541C228.3 541 182.7 541 137 541C91.3 541 45.7 541 22.8 541L0 541Z" fill="#ef5f67"></path><path d="M0 424L22.8 424.5C45.7 425 91.3 426 137 418C182.7 410 228.3 393 274 385.5C319.7 378 365.3 380 411.2 379.3C457 378.7 503 375.3 548.8 381.5C594.7 387.7 640.3 403.3 686 405.7C731.7 408 777.3 397 823 393.3C868.7 389.7 914.3 393.3 937.2 395.2L960 397L960 541L937.2 541C914.3 541 868.7 541 823 541C777.3 541 731.7 541 686 541C640.3 541 594.7 541 548.8 541C503 541 457 541 411.2 541C365.3 541 319.7 541 274 541C228.3 541 182.7 541 137 541C91.3 541 45.7 541 22.8 541L0 541Z" fill="#e34c67"></path><path d="M0 434L22.8 433.2C45.7 432.3 91.3 430.7 137 434.2C182.7 437.7 228.3 446.3 274 447.5C319.7 448.7 365.3 442.3 411.2 435.2C457 428 503 420 548.8 416.8C594.7 413.7 640.3 415.3 686 423.7C731.7 432 777.3 447 823 447.3C868.7 447.7 914.3 433.3 937.2 426.2L960 419L960 541L937.2 541C914.3 541 868.7 541 823 541C777.3 541 731.7 541 686 541C640.3 541 594.7 541 548.8 541C503 541 457 541 411.2 541C365.3 541 319.7 541 274 541C228.3 541 182.7 541 137 541C91.3 541 45.7 541 22.8 541L0 541Z" fill="#d53867"></path><path d="M0 476L22.8 481.7C45.7 487.3 91.3 498.7 137 500.3C182.7 502 228.3 494 274 488.8C319.7 483.7 365.3 481.3 411.2 480C457 478.7 503 478.3 548.8 480.8C594.7 483.3 640.3 488.7 686 486.7C731.7 484.7 777.3 475.3 823 475.7C868.7 476 914.3 486 937.2 491L960 496L960 541L937.2 541C914.3 541 868.7 541 823 541C777.3 541 731.7 541 686 541C640.3 541 594.7 541 548.8 541C503 541 457 541 411.2 541C365.3 541 319.7 541 274 541C228.3 541 182.7 541 137 541C91.3 541 45.7 541 22.8 541L0 541Z" fill="#c62368"></path></svg>